RobotoCondensed-Light.ufo
<glyph name="question" format="2">
  <advance width="827"/>
  <unicode hex="003F"/>
  <guideline x="0.0" y="1658.0" angle="0.0" identifier="HaeAF27yn5"/>
  <guideline x="0.0" y="555.0" angle="0.0" identifier="kzXdJbOB3Z"/>
  <outline>
    <contour>
      <point x="444" y="405" type="line"/>
      <point x="444" y="512"/>
      <point x="465" y="608"/>
      <point x="535" y="680" type="curve" smooth="yes"/>
      <point x="650" y="807"/>
      <point x="736" y="925"/>
      <point x="736" y="1103" type="curve" smooth="yes"/>
      <point x="736" y="1324"/>
      <point x="622" y="1476"/>
      <point x="419" y="1476" type="curve" smooth="yes"/>
      <point x="237" y="1476"/>
      <point x="92" y="1344"/>
      <point x="89" y="1116" type="curve"/>
      <point x="200" y="1116" type="line"/>
      <point x="202" y="1274"/>
      <point x="295" y="1368"/>
      <point x="419" y="1368" type="curve" smooth="yes"/>
      <point x="554" y="1368"/>
      <point x="625" y="1260"/>
      <point x="625" y="1101" type="curve" smooth="yes"/>
      <point x="625" y="942"/>
      <point x="560" y="874"/>
      <point x="473" y="769" type="curve" smooth="yes"/>
      <point x="369" y="649"/>
      <point x="335" y="576"/>
      <point x="333" y="405" type="curve"/>
    </contour>
    <contour>
      <point x="321" y="72" type="curve" smooth="yes"/>
      <point x="321" y="26"/>
      <point x="348" y="-9"/>
      <point x="394" y="-9" type="curve" smooth="yes"/>
      <point x="440" y="-9"/>
      <point x="468" y="26"/>
      <point x="468" y="72" type="curve" smooth="yes"/>
      <point x="468" y="117"/>
      <point x="440" y="153"/>
      <point x="394" y="153" type="curve" smooth="yes"/>
      <point x="348" y="153"/>
      <point x="321" y="117"/>
    </contour>
  </outline>
</glyph>
<glyph name="E" format="2">
  <advance width="1019"/>
  <unicode hex="0045"/>
  <anchor x="540" y="1612" name="top"/>
  <anchor x="540" y="10" name="bottom"/>
  <anchor x="999" y="1600" name="top_dd"/>
  <anchor x="999" y="-407" name="bottom_dd"/>
  <anchor x="999" y="1612" name="top0315"/>
  <anchor x="540" y="1612" name="parent_top"/>
  <outline>
    <contour>
      <point x="936" y="107" type="line"/>
      <point x="256" y="107" type="line"/>
      <point x="256" y="0" type="line"/>
      <point x="936" y="0" type="line"/>
    </contour>
    <contour>
      <point x="287" y="1456" type="line"/>
      <point x="173" y="1456" type="line"/>
      <point x="173" y="0" type="line"/>
      <point x="287" y="0" type="line"/>
    </contour>
    <contour>
      <point x="851" y="804" type="line"/>
      <point x="256" y="804" type="line"/>
      <point x="256" y="697" type="line"/>
      <point x="851" y="697" type="line"/>
    </contour>
    <contour>
      <point x="931" y="1456" type="line"/>
      <point x="256" y="1456" type="line"/>
      <point x="256" y="1349" type="line"/>
      <point x="931" y="1349" type="line"/>
    </contour>
  </outline>
</glyph>
<glyph name="backslash" format="2">
  <advance width="723"/>
  <unicode hex="005C"/>
  <guideline x="0.0" y="901.0" angle="0.0" identifier="4nzC0M5LBA"/>
  <guideline x="0.0" y="555.0" angle="0.0" identifier="TCq2bFjLjP"/>
  <outline>
    <contour>
      <point x="571" y="-125" type="line"/>
      <point x="678" y="-125" type="line"/>
      <point x="167" y="1456" type="line"/>
      <point x="60" y="1456" type="line"/>
    </contour>
  </outline>
</glyph>
<glyph name="deltaturn" format="2">
  <advance width="1001"/>
  <unicode hex="018D"/>
  <outline>
    <contour>
      <point x="771" y="-375" type="line"/>
      <point x="771" y="-290" type="line"/>
      <point x="696" y="-201"/>
      <point x="536" y="-72"/>
      <point x="422" y="61" type="curve"/>
      <point x="450" y="51"/>
      <point x="483" y="52"/>
      <point x="496" y="53" type="curve" smooth="yes"/>
      <point x="744" y="69"/>
      <point x="903" y="275"/>
      <point x="903" y="544" type="curve" smooth="yes"/>
      <point x="903" y="576" type="line" smooth="yes"/>
      <point x="903" y="879"/>
      <point x="747" y="1102"/>
      <point x="499" y="1102" type="curve" smooth="yes"/>
      <point x="252" y="1102"/>
      <point x="98" y="879"/>
      <point x="98" y="576" type="curve" smooth="yes"/>
      <point x="98" y="544" type="line" smooth="yes"/>
      <point x="98" y="332"/>
      <point x="203" y="147"/>
      <point x="361" y="-20" type="curve" smooth="yes"/>
      <point x="461" y="-136"/>
      <point x="559" y="-211"/>
      <point x="618" y="-274" type="curve"/>
      <point x="185" y="-274" type="line"/>
      <point x="185" y="-375" type="line"/>
    </contour>
    <contour>
      <point x="792" y="544" type="line"/>
      <point x="792" y="332"/>
      <point x="682" y="140"/>
      <point x="474" y="140" type="curve" smooth="yes"/>
      <point x="438" y="140"/>
      <point x="390" y="148"/>
      <point x="358" y="158" type="curve"/>
      <point x="295" y="213"/>
      <point x="209" y="352"/>
      <point x="209" y="544" type="curve" smooth="yes"/>
      <point x="209" y="576" type="line" smooth="yes"/>
      <point x="209" y="801"/>
      <point x="308" y="998"/>
      <point x="499" y="998" type="curve" smooth="yes"/>
      <point x="693" y="998"/>
      <point x="792" y="801"/>
      <point x="792" y="576" type="curve" smooth="yes"/>
    </contour>
  </outline>
</glyph>
<glyph name="Zbar" format="2">
  <advance width="1070"/>
  <unicode hex="01B5"/>
  <anchor x="535" y="1606" name="top"/>
  <anchor x="545" y="10" name="bottom"/>
  <anchor x="1050" y="1606" name="top0315"/>
  <anchor x="535" y="1606" name="parent_top"/>
  <outline>
    <contour>
      <point x="901" y="798" type="line" name="hr00"/>
      <point x="146" y="798" type="line"/>
      <point x="146" y="694" type="line"/>
      <point x="901" y="694" type="line"/>
    </contour>
    <contour>
      <point x="977" y="107" type="line"/>
      <point x="138" y="107" type="line"/>
      <point x="138" y="0" type="line"/>
      <point x="977" y="0" type="line"/>
    </contour>
    <contour>
      <point x="950" y="1366" type="line"/>
      <point x="950" y="1456" type="line"/>
      <point x="877" y="1456" type="line"/>
      <point x="95" y="95" type="line"/>
      <point x="95" y="0" type="line"/>
      <point x="167" y="0" type="line"/>
    </contour>
    <contour>
      <point x="901" y="1456" type="line"/>
      <point x="115" y="1456" type="line"/>
      <point x="115" y="1349" type="line"/>
      <point x="901" y="1349" type="line"/>
    </contour>
  </outline>
</glyph>
<glyph name="uni0237" format="2">
  <advance width="441"/>
  <unicode hex="0237"/>
  <anchor x="224" y="1249" name="top"/>
  <anchor x="421" y="1249" name="top0315"/>
  <anchor x="224" y="1249" name="parent_top"/>
  <outline>
    <contour>
      <point x="169" y="1082" type="line"/>
      <point x="169" y="-89" type="line"/>
      <point x="169" y="-244"/>
      <point x="116" y="-333"/>
      <point x="23" y="-333" type="curve" smooth="yes"/>
      <point x="1" y="-333"/>
      <point x="-43" y="-326"/>
      <point x="-60" y="-318" type="curve"/>
      <point x="-71" y="-418" type="line"/>
      <point x="-39" y="-431"/>
      <point x="-12" y="-437"/>
      <point x="23" y="-437" type="curve" smooth="yes"/>
      <point x="184" y="-437"/>
      <point x="281" y="-314"/>
      <point x="281" y="-89" type="curve"/>
      <point x="281" y="1082" type="line"/>
    </contour>
  </outline>
</glyph>
<glyph name="uni024E" format="2">
  <advance width="1175"/>
  <unicode hex="024E"/>
  <anchor x="588" y="1601" name="top"/>
  <anchor x="588" y="5" name="bottom"/>
  <anchor x="1155" y="1601" name="top0315"/>
  <anchor x="588" y="1601" name="parent_top"/>
  <outline>
    <contour>
      <point x="1126" y="1144" type="line"/>
      <point x="49" y="1144" type="line"/>
      <point x="49" y="1059" type="line"/>
      <point x="1126" y="1059" type="line"/>
    </contour>
    <contour>
      <point x="227" y="1456" type="line"/>
      <point x="92" y="1456" type="line"/>
      <point x="530" y="548" type="line"/>
      <point x="530" y="0" type="line"/>
      <point x="644" y="0" type="line"/>
      <point x="644" y="548" type="line"/>
      <point x="1082" y="1456" type="line"/>
      <point x="950" y="1456" type="line"/>
      <point x="587" y="665" type="line"/>
    </contour>
  </outline>
</glyph>
<glyph name="dzcurl" format="2">
  <advance width="1760"/>
  <unicode hex="02A5"/>
  <anchor x="1174" y="1600" name="top"/>
  <anchor x="1174" y="-447" name="bottom"/>
  <anchor x="1740" y="1600" name="top0315"/>
  <anchor x="1174" y="1600" name="parent_top"/>
  <outline>
    <contour>
      <point x="998" y="-120" type="line"/>
      <point x="1079" y="-186" type="line"/>
      <point x="1231" y="80" type="line"/>
      <point x="1345" y="296"/>
      <point x="1417" y="405"/>
      <point x="1505" y="405" type="curve" smooth="yes"/>
      <point x="1569" y="405"/>
      <point x="1609" y="357"/>
      <point x="1609" y="279" type="curve" smooth="yes"/>
      <point x="1609" y="175"/>
      <point x="1533" y="104"/>
      <point x="1430" y="104" type="curve" smooth="yes"/>
      <point x="1298" y="104" type="line"/>
      <point x="1298" y="0" type="line"/>
      <point x="1430" y="0" type="line" smooth="yes"/>
      <point x="1594" y="0"/>
      <point x="1714" y="123"/>
      <point x="1714" y="282" type="curve" smooth="yes"/>
      <point x="1714" y="423"/>
      <point x="1638" y="510"/>
      <point x="1514" y="510" type="curve" smooth="yes"/>
      <point x="1358" y="510"/>
      <point x="1273" y="357"/>
      <point x="1115" y="78" type="curve"/>
    </contour>
    <contour>
      <point x="1356" y="104" type="line"/>
      <point x="888" y="104" type="line"/>
      <point x="888" y="0" type="line"/>
      <point x="1356" y="0" type="line"/>
    </contour>
    <contour>
      <point x="1528" y="992" type="line"/>
      <point x="1528" y="1082" type="line"/>
      <point x="1458" y="1082" type="line"/>
      <point x="847" y="91" type="line"/>
      <point x="847" y="0" type="line"/>
      <point x="915" y="0" type="line"/>
    </contour>
    <contour>
      <point x="1479" y="1082" type="line"/>
      <point x="833" y="1082" type="line"/>
      <point x="833" y="977" type="line"/>
      <point x="1479" y="977" type="line"/>
    </contour>
    <contour>
      <point x="737" y="210" type="line"/>
      <point x="744" y="0" type="line"/>
      <point x="848" y="0" type="line"/>
      <point x="848" y="1536" type="line"/>
      <point x="737" y="1536" type="line"/>
    </contour>
    <contour>
      <point x="109" y="530" type="line"/>
      <point x="109" y="207"/>
      <point x="246" y="-20"/>
      <point x="460" y="-20" type="curve" smooth="yes"/>
      <point x="680" y="-20"/>
      <point x="795" y="156"/>
      <point x="821" y="401" type="curve"/>
      <point x="821" y="664" type="line"/>
      <point x="790" y="926"/>
      <point x="678" y="1102"/>
      <point x="462" y="1102" type="curve" smooth="yes"/>
      <point x="245" y="1102"/>
      <point x="109" y="886"/>
      <point x="109" y="551" type="curve" smooth="yes"/>
    </contour>
    <contour>
      <point x="221" y="551" type="line"/>
      <point x="221" y="801"/>
      <point x="302" y="996"/>
      <point x="484" y="996" type="curve" smooth="yes"/>
      <point x="670" y="996"/>
      <point x="741" y="824"/>
      <point x="766" y="684" type="curve"/>
      <point x="766" y="375" type="line"/>
      <point x="734" y="218"/>
      <point x="652" y="87"/>
      <point x="482" y="87" type="curve" smooth="yes"/>
      <point x="302" y="87"/>
      <point x="221" y="279"/>
      <point x="221" y="530" type="curve" smooth="yes"/>
    </contour>
  </outline>
</glyph>
<glyph name="uni02FD" format="2">
  <advance width="723"/>
  <unicode hex="02FD"/>
  <outline>
    <contour>
      <point x="559" y="-339" type="line"/>
      <point x="161" y="-339" type="line"/>
      <point x="161" y="-425" type="line"/>
      <point x="559" y="-425" type="line"/>
    </contour>
    <contour>
      <point x="177" y="-75" type="line"/>
      <point x="87" y="-75" type="line"/>
      <point x="87" y="-425" type="line"/>
      <point x="177" y="-425" type="line"/>
    </contour>
    <contour>
      <point x="636" y="-75" type="line"/>
      <point x="547" y="-75" type="line"/>
      <point x="547" y="-425" type="line"/>
      <point x="636" y="-425" type="line"/>
    </contour>
  </outline>
</glyph>
<glyph name="dieresistonos" format="2">
  <advance width="891"/>
  <unicode hex="0385"/>
  <outline>
    <contour>
      <point x="220" y="1218" type="curve" smooth="yes"/>
      <point x="271" y="1218"/>
      <point x="303" y="1254"/>
      <point x="303" y="1299" type="curve" smooth="yes"/>
      <point x="303" y="1344"/>
      <point x="271" y="1380"/>
      <point x="220" y="1380" type="curve" smooth="yes"/>
      <point x="168" y="1380"/>
      <point x="138" y="1344"/>
      <point x="138" y="1299" type="curve" smooth="yes"/>
      <point x="138" y="1254"/>
      <point x="168" y="1218"/>
    </contour>
    <contour>
      <point x="465" y="1213" type="line"/>
      <point x="553" y="1613" type="line"/>
      <point x="424" y="1613" type="line"/>
      <point x="392" y="1220" type="line"/>
    </contour>
    <contour>
      <point x="667" y="1217" type="curve" smooth="yes"/>
      <point x="719" y="1217"/>
      <point x="750" y="1253"/>
      <point x="750" y="1298" type="curve" smooth="yes"/>
      <point x="750" y="1343"/>
      <point x="719" y="1380"/>
      <point x="667" y="1380" type="curve" smooth="yes"/>
      <point x="616" y="1380"/>
      <point x="585" y="1343"/>
      <point x="585" y="1298" type="curve" smooth="yes"/>
      <point x="585" y="1253"/>
      <point x="616" y="1217"/>
    </contour>
  </outline>
</glyph>
<glyph name="Delta" format="2">
  <advance width="1150"/>
  <unicode hex="0394"/>
  <outline>
    <contour>
      <point x="59" y="0" type="line"/>
      <point x="1092" y="0" type="line"/>
      <point x="1092" y="60" type="line"/>
      <point x="628" y="1456" type="line"/>
      <point x="522" y="1456" type="line"/>
      <point x="59" y="63" type="line"/>
    </contour>
    <contour>
      <point x="191" y="107" type="line"/>
      <point x="575" y="1300" type="line"/>
      <point x="959" y="107" type="line"/>
    </contour>
  </outline>
</glyph>
<glyph name="Theta" format="2">
  <advance width="1257"/>
  <unicode hex="0398"/>
  <outline>
    <contour>
      <point x="628" y="-21" type="curve" smooth="yes"/>
      <point x="926" y="-21"/>
      <point x="1124" y="165"/>
      <point x="1124" y="654" type="curve" smooth="yes"/>
      <point x="1124" y="802" type="line" smooth="yes"/>
      <point x="1124" y="1291"/>
      <point x="926" y="1476"/>
      <point x="628" y="1476" type="curve" smooth="yes"/>
      <point x="331" y="1476"/>
      <point x="133" y="1291"/>
      <point x="133" y="802" type="curve" smooth="yes"/>
      <point x="133" y="654" type="line" smooth="yes"/>
      <point x="133" y="165"/>
      <point x="332" y="-21"/>
    </contour>
    <contour>
      <point x="628" y="89" type="curve" smooth="yes"/>
      <point x="392" y="89"/>
      <point x="247" y="247"/>
      <point x="247" y="642" type="curve" smooth="yes"/>
      <point x="247" y="815" type="line" smooth="yes"/>
      <point x="247" y="1211"/>
      <point x="392" y="1366"/>
      <point x="628" y="1366" type="curve" smooth="yes"/>
      <point x="865" y="1366"/>
      <point x="1008" y="1211"/>
      <point x="1008" y="815" type="curve" smooth="yes"/>
      <point x="1008" y="642" type="line" smooth="yes"/>
      <point x="1008" y="247"/>
      <point x="865" y="89"/>
    </contour>
    <contour>
      <point x="353" y="680" type="line"/>
      <point x="902" y="680" type="line"/>
      <point x="902" y="790" type="line"/>
      <point x="353" y="790" type="line"/>
    </contour>
  </outline>
</glyph>
<glyph name="Lambda" format="2">
  <advance width="1084"/>
  <unicode hex="039B"/>
  <outline>
    <contour>
      <point x="45" y="0" type="line"/>
      <point x="164" y="0" type="line"/>
      <point x="542" y="1293" type="line"/>
      <point x="920" y="0" type="line"/>
      <point x="1039" y="0" type="line"/>
      <point x="595" y="1456" type="line"/>
      <point x="489" y="1456" type="line"/>
    </contour>
  </outline>
</glyph>
<glyph name="Pi" format="2">
  <advance width="1239"/>
  <unicode hex="03A0"/>
  <outline>
    <contour>
      <point x="173" y="0" type="line"/>
      <point x="287" y="0" type="line"/>
      <point x="287" y="1349" type="line"/>
      <point x="950" y="1349" type="line"/>
      <point x="950" y="0" type="line"/>
      <point x="1065" y="0" type="line"/>
      <point x="1065" y="1456" type="line"/>
      <point x="173" y="1456" type="line"/>
    </contour>
  </outline>
</glyph>
<glyph name="Psi" format="2">
  <advance width="1453"/>
  <unicode hex="03A8"/>
  <outline>
    <contour>
      <point x="671" y="0" type="line"/>
      <point x="785" y="0" type="line"/>
      <point x="785" y="1456" type="line"/>
      <point x="671" y="1456" type="line"/>
    </contour>
    <contour>
      <point x="703" y="361" type="line"/>
      <point x="703" y="468" type="line"/>
      <point x="691" y="468" type="line" smooth="yes"/>
      <point x="430" y="468"/>
      <point x="267" y="540"/>
      <point x="267" y="926" type="curve" smooth="yes"/>
      <point x="267" y="1456" type="line"/>
      <point x="153" y="1456" type="line"/>
      <point x="153" y="928" type="line" smooth="yes"/>
      <point x="153" y="535"/>
      <point x="303" y="361"/>
      <point x="692" y="361" type="curve" smooth="yes"/>
    </contour>
    <contour>
      <point x="753" y="361" type="line"/>
      <point x="764" y="361" type="line" smooth="yes"/>
      <point x="1153" y="361"/>
      <point x="1303" y="535"/>
      <point x="1303" y="928" type="curve" smooth="yes"/>
      <point x="1303" y="1456" type="line"/>
      <point x="1189" y="1456" type="line"/>
      <point x="1189" y="926" type="line" smooth="yes"/>
      <point x="1189" y="540"/>
      <point x="1026" y="468"/>
      <point x="765" y="468" type="curve" smooth="yes"/>
      <point x="753" y="468" type="line"/>
    </contour>
  </outline>
</glyph>
<glyph name="Omega" format="2">
  <advance width="1287"/>
  <unicode hex="03A9"/>
  <anchor x="137" y="1456.0" name="GRK_topleft"/>
  <outline>
    <contour>
      <point x="133" y="0" type="line"/>
      <point x="557" y="0" type="line"/>
      <point x="557" y="405" type="line"/>
      <point x="344" y="441"/>
      <point x="247" y="581"/>
      <point x="247" y="848" type="curve"/>
      <point x="247" y="900" type="line"/>
      <point x="247" y="1216"/>
      <point x="374" y="1366"/>
      <point x="643" y="1366" type="curve"/>
      <point x="912" y="1366"/>
      <point x="1040" y="1216"/>
      <point x="1040" y="900" type="curve"/>
      <point x="1040" y="848" type="line"/>
      <point x="1040" y="581"/>
      <point x="940" y="441"/>
      <point x="728" y="405" type="curve"/>
      <point x="728" y="0" type="line"/>
      <point x="1154" y="0" type="line"/>
      <point x="1154" y="102" type="line"/>
      <point x="836" y="102" type="line"/>
      <point x="836" y="321" type="line"/>
      <point x="1059" y="404"/>
      <point x="1154" y="566"/>
      <point x="1154" y="846" type="curve"/>
      <point x="1154" y="892" type="line"/>
      <point x="1154" y="1287"/>
      <point x="962" y="1476"/>
      <point x="643" y="1476" type="curve"/>
      <point x="325" y="1476"/>
      <point x="133" y="1287"/>
      <point x="133" y="892" type="curve"/>
      <point x="133" y="846" type="line"/>
      <point x="133" y="566"/>
      <point x="223" y="404"/>
      <point x="449" y="321" type="curve"/>
      <point x="449" y="102" type="line"/>
      <point x="133" y="102" type="line"/>
    </contour>
  </outline>
</glyph>
<glyph name="alpha" format="2">
  <advance width="1103"/>
  <unicode hex="03B1"/>
  <anchor x="501" y="1082" name="GRK_top"/>
  <outline>
    <contour>
      <point x="492" y="-21" type="curve"/>
      <point x="642" y="-21"/>
      <point x="721" y="53"/>
      <point x="776" y="123" type="curve"/>
      <point x="778" y="123" type="line"/>
      <point x="789" y="15"/>
      <point x="849" y="-19"/>
      <point x="932" y="-19" type="curve"/>
      <point x="968" y="-19"/>
      <point x="1002" y="-11"/>
      <point x="1022" y="0" type="curve"/>
      <point x="1022" y="94" type="line"/>
      <point x="1003" y="85"/>
      <point x="981" y="82"/>
      <point x="961" y="82" type="curve"/>
      <point x="910" y="82"/>
      <point x="887" y="108"/>
      <point x="887" y="189" type="curve" smooth="yes"/>
      <point x="887" y="1082" type="line"/>
      <point x="781" y="1082" type="line"/>
      <point x="778" y="950" type="line"/>
      <point x="777" y="950" type="line"/>
      <point x="713" y="1057"/>
      <point x="603" y="1102"/>
      <point x="500" y="1102" type="curve"/>
      <point x="242" y="1102"/>
      <point x="109" y="912"/>
      <point x="109" y="554" type="curve" smooth="yes"/>
      <point x="109" y="523" type="line" smooth="yes"/>
      <point x="109" y="170"/>
      <point x="228" y="-21"/>
    </contour>
    <contour>
      <point x="508" y="83" type="curve" smooth="yes"/>
      <point x="309" y="83"/>
      <point x="221" y="222"/>
      <point x="221" y="506" type="curve" smooth="yes"/>
      <point x="221" y="590" type="line"/>
      <point x="221" y="863"/>
      <point x="326" y="998"/>
      <point x="507" y="998" type="curve" smooth="yes"/>
      <point x="670" y="998"/>
      <point x="746" y="902"/>
      <point x="774" y="841" type="curve"/>
      <point x="774" y="254" type="line"/>
      <point x="735" y="156"/>
      <point x="630" y="83"/>
    </contour>
  </outline>
</glyph>
<glyph name="gamma" format="2">
  <advance width="869"/>
  <unicode hex="03B3"/>
  <outline>
    <contour>
      <point x="379" y="-366" type="line"/>
      <point x="490" y="-366" type="line"/>
      <point x="490" y="35" type="line"/>
      <point x="816" y="1082" type="line"/>
      <point x="702" y="1082" type="line"/>
      <point x="436" y="175" type="line"/>
      <point x="166" y="1082" type="line"/>
      <point x="51" y="1082" type="line"/>
      <point x="379" y="35" type="line"/>
    </contour>
  </outline>
</glyph>
<glyph name="delta" format="2">
  <advance width="1005"/>
  <unicode hex="03B4"/>
  <outline>
    <contour>
      <point x="508" y="-21" type="curve" smooth="yes"/>
      <point x="749" y="-21"/>
      <point x="898" y="180"/>
      <point x="898" y="468" type="curve" smooth="yes"/>
      <point x="898" y="481" type="line" smooth="yes"/>
      <point x="898" y="763"/>
      <point x="760" y="903"/>
      <point x="571" y="1030" type="curve" smooth="yes"/>
      <point x="382" y="1157"/>
      <point x="343" y="1198"/>
      <point x="343" y="1288" type="curve" smooth="yes"/>
      <point x="343" y="1389"/>
      <point x="405" y="1451"/>
      <point x="545" y="1451" type="curve"/>
      <point x="636" y="1451"/>
      <point x="724" y="1420"/>
      <point x="776" y="1378" type="curve"/>
      <point x="805" y="1481" type="line"/>
      <point x="746" y="1527"/>
      <point x="646" y="1557"/>
      <point x="544" y="1557" type="curve"/>
      <point x="344" y="1557"/>
      <point x="234" y="1442"/>
      <point x="235" y="1283" type="curve"/>
      <point x="234" y="1155"/>
      <point x="305" y="1069"/>
      <point x="480" y="964" type="curve" smooth="yes"/>
      <point x="700" y="833"/>
      <point x="787" y="707"/>
      <point x="787" y="479" type="curve" smooth="yes"/>
      <point x="787" y="461" type="line" smooth="yes"/>
      <point x="787" y="229"/>
      <point x="687" y="83"/>
      <point x="510" y="83" type="curve" smooth="yes"/>
      <point x="326" y="83"/>
      <point x="218" y="233"/>
      <point x="218" y="473" type="curve"/>
      <point x="218" y="493" type="line"/>
      <point x="218" y="727"/>
      <point x="320" y="900"/>
      <point x="561" y="963" type="curve"/>
      <point x="473" y="1018" type="line"/>
      <point x="229" y="951"/>
      <point x="107" y="744"/>
      <point x="107" y="492" type="curve" smooth="yes"/>
      <point x="107" y="476" type="line" smooth="yes"/>
      <point x="107" y="166"/>
      <point x="264" y="-21"/>
    </contour>
  </outline>
</glyph>
<glyph name="zeta" format="2">
  <advance width="758"/>
  <unicode hex="03B6"/>
  <outline>
    <contour>
      <point x="556" y="-348" type="curve"/>
      <point x="658" y="-348" type="line"/>
      <point x="689" y="-286"/>
      <point x="713" y="-204"/>
      <point x="713" y="-139" type="curve"/>
      <point x="713" y="-26"/>
      <point x="675" y="36"/>
      <point x="481" y="102" type="curve" smooth="yes"/>
      <point x="425" y="121" type="line" smooth="yes"/>
      <point x="280" y="170"/>
      <point x="218" y="224"/>
      <point x="218" y="354" type="curve" smooth="yes"/>
      <point x="218" y="495"/>
      <point x="303" y="659"/>
      <point x="451" y="922" type="curve" smooth="yes"/>
      <point x="748" y="1444" type="line"/>
      <point x="748" y="1536" type="line"/>
      <point x="117" y="1536" type="line"/>
      <point x="117" y="1430" type="line"/>
      <point x="656" y="1430" type="line"/>
      <point x="656" y="1496" type="line"/>
      <point x="355" y="963" type="line" smooth="yes"/>
      <point x="215" y="714"/>
      <point x="107" y="528"/>
      <point x="107" y="341" type="curve" smooth="yes"/>
      <point x="107" y="182"/>
      <point x="188" y="84"/>
      <point x="381" y="21" type="curve" smooth="yes"/>
      <point x="430" y="5" type="line" smooth="yes"/>
      <point x="568" y="-40"/>
      <point x="603" y="-73"/>
      <point x="603" y="-166" type="curve"/>
      <point x="603" y="-230"/>
      <point x="586" y="-268"/>
    </contour>
  </outline>
</glyph>
<glyph name="eta" format="2">
  <advance width="987"/>
  <unicode hex="03B7"/>
  <anchor x="362" y="1082" name="GRK_top"/>
  <outline>
    <contour>
      <point x="729" y="-416" type="line"/>
      <point x="840" y="-416" type="line"/>
      <point x="840" y="705" type="line" smooth="yes"/>
      <point x="840" y="990"/>
      <point x="731" y="1102"/>
      <point x="550" y="1102" type="curve" smooth="yes"/>
      <point x="424" y="1102"/>
      <point x="322" y="1027"/>
      <point x="259" y="912" type="curve"/>
      <point x="255" y="1082" type="line"/>
      <point x="149" y="1082" type="line"/>
      <point x="149" y="0" type="line"/>
      <point x="260" y="0" type="line"/>
      <point x="260" y="753" type="line"/>
      <point x="300" y="879"/>
      <point x="389" y="996"/>
      <point x="521" y="996" type="curve" smooth="yes"/>
      <point x="650" y="996"/>
      <point x="729" y="927"/>
      <point x="729" y="706" type="curve" smooth="yes"/>
    </contour>
  </outline>
</glyph>
<glyph name="theta" format="2">
  <advance width="1007"/>
  <unicode hex="03B8"/>
  <guideline x="192" y="620" angle="0" identifier="TZ1Yk7RZUs"/>
  <outline>
    <contour>
      <point x="504" y="-20" type="curve" smooth="yes"/>
      <point x="747" y="-20"/>
      <point x="900" y="127"/>
      <point x="900" y="623" type="curve"/>
      <point x="900" y="903" type="line"/>
      <point x="900" y="1406"/>
      <point x="745" y="1557"/>
      <point x="502" y="1557" type="curve" smooth="yes"/>
      <point x="265" y="1557"/>
      <point x="107" y="1416"/>
      <point x="107" y="903" type="curve"/>
      <point x="107" y="623" type="line"/>
      <point x="107" y="127"/>
      <point x="266" y="-20"/>
    </contour>
    <contour>
      <point x="506" y="84" type="curve" smooth="yes"/>
      <point x="331" y="84"/>
      <point x="219" y="196.0"/>
      <point x="219" y="613" type="curve" smooth="yes"/>
      <point x="219" y="924" type="line" smooth="yes"/>
      <point x="219" y="1331"/>
      <point x="313" y="1453"/>
      <point x="502" y="1453" type="curve" smooth="yes"/>
      <point x="679" y="1453"/>
      <point x="789" y="1355"/>
      <point x="789" y="924" type="curve" smooth="yes"/>
      <point x="789" y="613" type="line"/>
      <point x="789" y="185"/>
      <point x="682" y="84"/>
    </contour>
    <contour>
      <point x="164" y="742" type="line"/>
      <point x="843" y="742" type="line"/>
      <point x="843" y="842" type="line"/>
      <point x="164" y="842" type="line"/>
    </contour>
  </outline>
</glyph>
<glyph name="lambda" format="2">
  <advance width="909"/>
  <unicode hex="03BB"/>
  <outline>
    <contour>
      <point x="47" y="0" type="line"/>
      <point x="173" y="0" type="line"/>
      <point x="462" y="897" type="line"/>
      <point x="739" y="0" type="line"/>
      <point x="865" y="0" type="line"/>
      <point x="466" y="1252" type="line" smooth="yes"/>
      <point x="393" y="1480"/>
      <point x="312" y="1557"/>
      <point x="158" y="1557" type="curve" smooth="yes"/>
      <point x="117" y="1557"/>
      <point x="84" y="1551"/>
      <point x="46" y="1536" type="curve"/>
      <point x="46" y="1430" type="line"/>
      <point x="63" y="1437"/>
      <point x="96" y="1450"/>
      <point x="143" y="1450" type="curve"/>
      <point x="264" y="1450"/>
      <point x="289" y="1397"/>
      <point x="370" y="1161" type="curve" smooth="yes"/>
      <point x="400" y="1074" type="line"/>
    </contour>
  </outline>
</glyph>
<glyph name="rho" format="2">
  <advance width="1013"/>
  <unicode hex="03C1"/>
  <outline>
    <contour>
      <point x="128" y="-416" type="line"/>
      <point x="239" y="-416" type="line"/>
      <point x="239" y="133" type="line"/>
      <point x="284" y="45"/>
      <point x="389" y="-21"/>
      <point x="521" y="-21" type="curve"/>
      <point x="767" y="-21"/>
      <point x="904" y="185"/>
      <point x="904" y="509" type="curve" smooth="yes"/>
      <point x="904" y="576" type="line" smooth="yes"/>
      <point x="904" y="883"/>
      <point x="778" y="1102"/>
      <point x="513" y="1102" type="curve" smooth="yes"/>
      <point x="266" y="1102"/>
      <point x="128" y="943"/>
      <point x="128" y="568" type="curve" smooth="yes"/>
    </contour>
    <contour>
      <point x="510" y="83" type="curve" smooth="yes"/>
      <point x="360" y="83"/>
      <point x="270" y="175"/>
      <point x="239" y="260" type="curve"/>
      <point x="239" y="573" type="line"/>
      <point x="239" y="842"/>
      <point x="307" y="998"/>
      <point x="508" y="998" type="curve" smooth="yes"/>
      <point x="676" y="998"/>
      <point x="793" y="867"/>
      <point x="793" y="581" type="curve" smooth="yes"/>
      <point x="793" y="488" type="line" smooth="yes"/>
      <point x="793" y="210"/>
      <point x="686" y="83"/>
    </contour>
  </outline>
</glyph>
<glyph name="sigma" format="2">
  <advance width="1071"/>
  <unicode hex="03C3"/>
  <outline>
    <contour>
      <point x="509" y="-21.0" type="curve" smooth="yes"/>
      <point x="778" y="-21.0"/>
      <point x="910" y="176.0"/>
      <point x="910" y="515.0" type="curve" smooth="yes"/>
      <point x="910" y="545.0" type="line" smooth="yes"/>
      <point x="910" y="767.0"/>
      <point x="853" y="922.0"/>
      <point x="693" y="999.0" type="curve"/>
      <point x="693" y="976.0" type="line"/>
      <point x="990" y="976.0" type="line"/>
      <point x="990" y="1082.0" type="line"/>
      <point x="577" y="1082.0" type="line"/>
      <point x="290" y="1082.0"/>
      <point x="107" y="904.0"/>
      <point x="107" y="541.0" type="curve" smooth="yes"/>
      <point x="107" y="511.0" type="line" smooth="yes"/>
      <point x="107" y="172.0"/>
      <point x="241" y="-21.0"/>
    </contour>
    <contour>
      <point x="509" y="83.0" type="curve" smooth="yes"/>
      <point x="298" y="83.0"/>
      <point x="219" y="246"/>
      <point x="219" y="509.0" type="curve" smooth="yes"/>
      <point x="219" y="542.0" type="line" smooth="yes"/>
      <point x="219" y="801"/>
      <point x="289" y="981.0"/>
      <point x="584" y="981.0" type="curve"/>
      <point x="713" y="931.0"/>
      <point x="799" y="812"/>
      <point x="799" y="546.0" type="curve" smooth="yes"/>
      <point x="799" y="513.0" type="line" smooth="yes"/>
      <point x="799" y="250"/>
      <point x="724" y="83.0"/>
    </contour>
  </outline>
</glyph>
<glyph name="upsilon" format="2">
  <advance width="985"/>
  <unicode hex="03C5"/>
  <anchor x="493.0" y="1082" name="GRK_top"/>
  <outline>
    <contour>
      <point x="493" y="-20" type="curve" smooth="yes"/>
      <point x="718" y="-20"/>
      <point x="840" y="83"/>
      <point x="840" y="382" type="curve" smooth="yes"/>
      <point x="840" y="1082" type="line"/>
      <point x="727" y="1082" type="line"/>
      <point x="727" y="376" type="line" smooth="yes"/>
      <point x="727" y="164"/>
      <point x="659" y="87"/>
      <point x="493" y="87" type="curve" smooth="yes"/>
      <point x="328" y="87"/>
      <point x="256" y="164"/>
      <point x="256" y="376" type="curve" smooth="yes"/>
      <point x="256" y="1082" type="line"/>
      <point x="145" y="1082" type="line"/>
      <point x="145" y="382" type="line" smooth="yes"/>
      <point x="145" y="83"/>
      <point x="269" y="-20"/>
    </contour>
  </outline>
</glyph>
<glyph name="chi" format="2">
  <advance width="911"/>
  <unicode hex="03C7"/>
  <outline>
    <contour>
      <point x="59" y="-416" type="line"/>
      <point x="190" y="-416" type="line"/>
      <point x="486" y="296" type="line"/>
      <point x="495" y="296" type="line"/>
      <point x="844" y="1082" type="line"/>
      <point x="714" y="1082" type="line"/>
      <point x="435" y="406" type="line"/>
      <point x="417" y="406" type="line"/>
    </contour>
    <contour>
      <point x="719" y="-416" type="line"/>
      <point x="850" y="-416" type="line"/>
      <point x="516" y="392" type="line"/>
      <point x="507" y="392" type="line"/>
      <point x="221" y="1082" type="line"/>
      <point x="91" y="1082" type="line"/>
      <point x="431" y="301" type="line"/>
      <point x="439" y="301" type="line"/>
    </contour>
  </outline>
</glyph>
<glyph name="psi" format="2">
  <advance width="1318"/>
  <unicode hex="03C8"/>
  <outline>
    <contour>
      <point x="602" y="-416" type="line"/>
      <point x="713" y="-416" type="line"/>
      <point x="713" y="-19" type="line"/>
      <point x="1003" y="-11"/>
      <point x="1170" y="154"/>
      <point x="1170" y="480" type="curve" smooth="yes"/>
      <point x="1170" y="1082" type="line"/>
      <point x="1059" y="1082" type="line"/>
      <point x="1059" y="490" type="line" smooth="yes"/>
      <point x="1059" y="249"/>
      <point x="975" y="95"/>
      <point x="713" y="82" type="curve"/>
      <point x="713" y="1536" type="line"/>
      <point x="602" y="1536" type="line"/>
      <point x="602" y="82" type="line"/>
      <point x="341" y="95"/>
      <point x="256" y="249"/>
      <point x="256" y="490" type="curve" smooth="yes"/>
      <point x="256" y="1082" type="line"/>
      <point x="145" y="1082" type="line"/>
      <point x="145" y="480" type="line" smooth="yes"/>
      <point x="145" y="154"/>
      <point x="312" y="-11"/>
      <point x="602" y="-19" type="curve"/>
    </contour>
  </outline>
</glyph>
<glyph name="omega" format="2">
  <advance width="1439"/>
  <unicode hex="03C9"/>
  <anchor x="720" y="1082" name="GRK_top"/>
  <outline>
    <contour>
      <point x="449.0" y="-20" type="curve" smooth="yes"/>
      <point x="585.0" y="-20"/>
      <point x="688.0" y="41"/>
      <point x="726.0" y="196" type="curve"/>
      <point x="712.0" y="196" type="line"/>
      <point x="751.0" y="41"/>
      <point x="854.0" y="-20"/>
      <point x="990.0" y="-20" type="curve" smooth="yes"/>
      <point x="1206.0" y="-20"/>
      <point x="1332.0" y="149"/>
      <point x="1332.0" y="489" type="curve" smooth="yes"/>
      <point x="1332.0" y="753"/>
      <point x="1250.0" y="957"/>
      <point x="1148.0" y="1082" type="curve"/>
      <point x="1026.0" y="1082" type="line"/>
      <point x="1128.0" y="954"/>
      <point x="1221.0" y="750"/>
      <point x="1221.0" y="487" type="curve" smooth="yes"/>
      <point x="1221.0" y="220"/>
      <point x="1141.0" y="83"/>
      <point x="975.0" y="83" type="curve"/>
      <point x="842.0" y="83"/>
      <point x="775.0" y="166"/>
      <point x="775.0" y="376" type="curve" smooth="yes"/>
      <point x="775.0" y="719" type="line"/>
      <point x="664.0" y="719" type="line"/>
      <point x="664.0" y="376" type="line"/>
      <point x="664.0" y="166"/>
      <point x="597.0" y="83"/>
      <point x="464.0" y="83" type="curve"/>
      <point x="298.0" y="83"/>
      <point x="218.0" y="220"/>
      <point x="218.0" y="487" type="curve" smooth="yes"/>
      <point x="218.0" y="750"/>
      <point x="311.0" y="954"/>
      <point x="413.0" y="1082" type="curve"/>
      <point x="291.0" y="1082" type="line"/>
      <point x="189.0" y="957"/>
      <point x="107.0" y="753"/>
      <point x="107.0" y="489" type="curve" smooth="yes"/>
      <point x="107.0" y="149"/>
      <point x="233.0" y="-20"/>
    </contour>
  </outline>
</glyph>
<glyph name="uni03FD" format="2">
  <advance width="1154"/>
  <unicode hex="03FD"/>
  <outline>
    <contour>
      <point x="113" y="454" type="line"/>
      <point x="133" y="128"/>
      <point x="292" y="-21"/>
      <point x="566" y="-21" type="curve" smooth="yes"/>
      <point x="846" y="-21"/>
      <point x="1021" y="205"/>
      <point x="1021" y="577" type="curve" smooth="yes"/>
      <point x="1021" y="889" type="line" smooth="yes"/>
      <point x="1021" y="1254"/>
      <point x="846" y="1476"/>
      <point x="557" y="1476" type="curve" smooth="yes"/>
      <point x="293" y="1476"/>
      <point x="132" y="1331"/>
      <point x="113" y="1000" type="curve"/>
      <point x="228" y="1000" type="line"/>
      <point x="248" y="1267"/>
      <point x="351" y="1369"/>
      <point x="557" y="1369" type="curve" smooth="yes"/>
      <point x="782" y="1369"/>
      <point x="906" y="1191"/>
      <point x="906" y="891" type="curve" smooth="yes"/>
      <point x="906" y="577" type="line" smooth="yes"/>
      <point x="906" y="280"/>
      <point x="791" y="86"/>
      <point x="566" y="86" type="curve" smooth="yes"/>
      <point x="351" y="86"/>
      <point x="250" y="176"/>
      <point x="228" y="454" type="curve"/>
    </contour>
  </outline>
</glyph>
<glyph name="uni042B" format="2">
  <advance width="1486"/>
  <unicode hex="042B"/>
  <anchor x="763" y="1612" name="top"/>
  <anchor x="1466" y="1612" name="top0315"/>
  <anchor x="763" y="1612" name="parent_top"/>
  <outline>
    <contour>
      <point x="253.0" y="826.0" type="line"/>
      <point x="253.0" y="719.0" type="line"/>
      <point x="591.0" y="719.0" type="line"/>
      <point x="799.0" y="719.0"/>
      <point x="883.0" y="578.0"/>
      <point x="883.0" y="417.0" type="curve"/>
      <point x="883.0" y="252.0"/>
      <point x="799.0" y="107.0"/>
      <point x="591.0" y="107.0" type="curve"/>
      <point x="290.0" y="107.0" type="line"/>
      <point x="290.0" y="1456.0" type="line"/>
      <point x="175.0" y="1456.0" type="line"/>
      <point x="175.0" y="0.0" type="line"/>
      <point x="591.0" y="0.0" type="line"/>
      <point x="856.0" y="0.0"/>
      <point x="998.0" y="171.0"/>
      <point x="998.0" y="415.0" type="curve"/>
      <point x="998.0" y="660.0"/>
      <point x="857.0" y="826.0"/>
      <point x="591.0" y="826.0" type="curve"/>
    </contour>
    <contour>
      <point x="1304.0" y="1456.0" type="line"/>
      <point x="1189.0" y="1456.0" type="line"/>
      <point x="1189.0" y="0.0" type="line"/>
      <point x="1304.0" y="0.0" type="line"/>
    </contour>
  </outline>
</glyph>
<glyph name="uni042D" format="2">
  <advance width="1181"/>
  <unicode hex="042D"/>
  <anchor x="601" y="1634" name="top"/>
  <anchor x="1161" y="1634" name="top0315"/>
  <anchor x="601" y="1634" name="parent_top"/>
  <outline>
    <contour>
      <point x="955" y="785" type="line"/>
      <point x="436" y="785" type="line"/>
      <point x="436" y="678" type="line"/>
      <point x="955" y="678" type="line"/>
    </contour>
    <contour>
      <point x="140" y="454" type="line"/>
      <point x="165" y="160"/>
      <point x="318" y="-20"/>
      <point x="592" y="-20" type="curve" smooth="yes"/>
      <point x="872" y="-20"/>
      <point x="1056" y="243"/>
      <point x="1056" y="637" type="curve" smooth="yes"/>
      <point x="1056" y="818" type="line" smooth="yes"/>
      <point x="1056" y="1212"/>
      <point x="873" y="1476"/>
      <point x="584" y="1476" type="curve" smooth="yes"/>
      <point x="320" y="1476"/>
      <point x="165" y="1299"/>
      <point x="140" y="1000" type="curve"/>
      <point x="254" y="1000" type="line"/>
      <point x="279" y="1234"/>
      <point x="378" y="1369"/>
      <point x="584" y="1369" type="curve" smooth="yes"/>
      <point x="809" y="1369"/>
      <point x="941" y="1150"/>
      <point x="941" y="820" type="curve" smooth="yes"/>
      <point x="941" y="637" type="line" smooth="yes"/>
      <point x="941" y="319"/>
      <point x="818" y="87"/>
      <point x="592" y="87" type="curve" smooth="yes"/>
      <point x="378" y="87"/>
      <point x="280" y="210"/>
      <point x="254" y="454" type="curve"/>
    </contour>
  </outline>
</glyph>
<glyph name="uni0518" format="2">
  <advance width="1670"/>
  <unicode hex="0518"/>
  <outline>
    <contour>
      <point x="1588" y="107" type="line"/>
      <point x="908" y="107" type="line"/>
      <point x="908" y="0" type="line"/>
      <point x="1588" y="0" type="line"/>
    </contour>
    <contour>
      <point x="1502" y="804" type="line"/>
      <point x="908" y="804" type="line"/>
      <point x="908" y="697" type="line"/>
      <point x="1502" y="697" type="line"/>
    </contour>
    <contour>
      <point x="1583" y="1456" type="line"/>
      <point x="908" y="1456" type="line"/>
      <point x="908" y="1349" type="line"/>
      <point x="1583" y="1349" type="line"/>
    </contour>
    <contour>
      <point x="860" y="593" type="line"/>
      <point x="861" y="700" type="line"/>
      <point x="537" y="700" type="line"/>
      <point x="357" y="700"/>
      <point x="258" y="833"/>
      <point x="258" y="1019" type="curve"/>
      <point x="258" y="1224"/>
      <point x="360" y="1349"/>
      <point x="561" y="1349" type="curve"/>
      <point x="824" y="1349" type="line"/>
      <point x="824" y="0" type="line"/>
      <point x="939" y="0" type="line"/>
      <point x="939" y="1456" type="line"/>
      <point x="561" y="1456" type="line"/>
      <point x="303" y="1456"/>
      <point x="143" y="1299"/>
      <point x="143" y="1018" type="curve"/>
      <point x="143" y="822"/>
      <point x="236" y="683"/>
      <point x="405" y="621" type="curve"/>
      <point x="459" y="593" type="line"/>
    </contour>
    <contour>
      <point x="520" y="668" type="line"/>
      <point x="404" y="668" type="line"/>
      <point x="97" y="0" type="line"/>
      <point x="221" y="0" type="line"/>
    </contour>
  </outline>
</glyph>
<glyph name="uni1D38" format="2">
  <advance width="697"/>
  <unicode hex="1D38"/>
  <outline>
    <contour>
      <point x="652" y="752" type="line"/>
      <point x="173" y="752" type="line"/>
      <point x="173" y="651" type="line"/>
      <point x="652" y="651" type="line"/>
    </contour>
    <contour>
      <point x="215" y="1728" type="line"/>
      <point x="112" y="1728" type="line"/>
      <point x="112" y="651" type="line"/>
      <point x="215" y="651" type="line"/>
    </contour>
  </outline>
</glyph>
<glyph name="uni1D47" format="2">
  <advance width="765"/>
  <unicode hex="1D47"/>
  <outline>
    <contour>
      <point x="112" y="1805" type="line"/>
      <point x="112" y="651" type="line"/>
      <point x="206" y="651" type="line"/>
      <point x="215" y="806" type="line"/>
      <point x="215" y="1805" type="line"/>
    </contour>
    <contour>
      <point x="687" y="1059" type="line"/>
      <point x="687" y="1311"/>
      <point x="586" y="1466"/>
      <point x="421" y="1466" type="curve" smooth="yes"/>
      <point x="261" y="1466"/>
      <point x="172" y="1336"/>
      <point x="149" y="1142" type="curve"/>
      <point x="149" y="947" type="line"/>
      <point x="169" y="766"/>
      <point x="259" y="635"/>
      <point x="422" y="635" type="curve" smooth="yes"/>
      <point x="586" y="635"/>
      <point x="687" y="799"/>
      <point x="687" y="1043" type="curve" smooth="yes"/>
    </contour>
    <contour>
      <point x="583" y="1043" type="line"/>
      <point x="583" y="857"/>
      <point x="527" y="737"/>
      <point x="405" y="737" type="curve" smooth="yes"/>
      <point x="289" y="737"/>
      <point x="217" y="820"/>
      <point x="197" y="933" type="curve"/>
      <point x="197" y="1152" type="line"/>
      <point x="215" y="1256"/>
      <point x="276" y="1365"/>
      <point x="405" y="1365" type="curve" smooth="yes"/>
      <point x="533" y="1365"/>
      <point x="583" y="1233"/>
      <point x="583" y="1059" type="curve" smooth="yes"/>
    </contour>
  </outline>
</glyph>
<glyph name="uni1DA4" format="2">
  <advance width="492"/>
  <unicode hex="1DA4"/>
  <guideline x="315.0" y="0.0" angle="90.0" identifier="5axmORuMec"/>
  <outline>
    <contour>
      <point x="297" y="1454" type="line"/>
      <point x="194" y="1454" type="line"/>
      <point x="194" y="651" type="line"/>
      <point x="297" y="651" type="line"/>
    </contour>
    <contour>
      <point x="181" y="1678" type="curve" smooth="yes"/>
      <point x="181" y="1638"/>
      <point x="204" y="1606"/>
      <point x="246" y="1606" type="curve" smooth="yes"/>
      <point x="287" y="1606"/>
      <point x="312" y="1638"/>
      <point x="312" y="1678" type="curve" smooth="yes"/>
      <point x="312" y="1719"/>
      <point x="287" y="1750"/>
      <point x="246" y="1750" type="curve" smooth="yes"/>
      <point x="204" y="1750"/>
      <point x="181" y="1719"/>
    </contour>
    <contour>
      <point x="446" y="1137" type="line"/>
      <point x="46" y="1137" type="line"/>
      <point x="46" y="1037" type="line"/>
      <point x="446" y="1037" type="line"/>
    </contour>
  </outline>
</glyph>
<glyph name="uni1DB7" format="2">
  <advance width="838"/>
  <unicode hex="1DB7"/>
  <outline>
    <contour>
      <point x="418" y="740" type="curve" smooth="yes"/>
      <point x="223" y="740"/>
      <point x="188" y="874"/>
      <point x="188" y="954" type="curve" smooth="yes"/>
      <point x="188" y="1100"/>
      <point x="313" y="1164"/>
      <point x="313" y="1283" type="curve" smooth="yes"/>
      <point x="313" y="1356"/>
      <point x="279" y="1454"/>
      <point x="100" y="1454" type="curve"/>
      <point x="100" y="1360" type="line"/>
      <point x="149" y="1360"/>
      <point x="207" y="1339"/>
      <point x="207" y="1272" type="curve" smooth="yes"/>
      <point x="207" y="1182"/>
      <point x="81" y="1121"/>
      <point x="81" y="951" type="curve" smooth="yes"/>
      <point x="81" y="811"/>
      <point x="149" y="640"/>
      <point x="419" y="640" type="curve" smooth="yes"/>
      <point x="688" y="640"/>
      <point x="757" y="811"/>
      <point x="757" y="951" type="curve" smooth="yes"/>
      <point x="757" y="1121"/>
      <point x="631" y="1181"/>
      <point x="631" y="1272" type="curve" smooth="yes"/>
      <point x="631" y="1339"/>
      <point x="688" y="1360"/>
      <point x="738" y="1360" type="curve"/>
      <point x="738" y="1454" type="line"/>
      <point x="560" y="1454"/>
      <point x="524" y="1356"/>
      <point x="524" y="1283" type="curve" smooth="yes"/>
      <point x="524" y="1165"/>
      <point x="650" y="1100"/>
      <point x="650" y="955" type="curve" smooth="yes"/>
      <point x="650" y="874"/>
      <point x="614" y="740"/>
    </contour>
  </outline>
</glyph>
<glyph name="uni1DD4" format="2">
  <unicode hex="1DD4"/>
  <anchor x="-461" y="1170" name="_top"/>
  <outline>
    <contour>
      <point x="-507" y="1477" type="line"/>
      <point x="-432" y="1485" type="line"/>
      <point x="-432" y="1573" type="line" smooth="yes"/>
      <point x="-432" y="1697"/>
      <point x="-504" y="1759"/>
      <point x="-606" y="1759" type="curve" smooth="yes"/>
      <point x="-713" y="1759"/>
      <point x="-786" y="1686"/>
      <point x="-786" y="1595" type="curve"/>
      <point x="-714" y="1589" type="line"/>
      <point x="-714" y="1647"/>
      <point x="-673" y="1688"/>
      <point x="-606" y="1688" type="curve" smooth="yes"/>
      <point x="-538" y="1688"/>
      <point x="-507" y="1649"/>
      <point x="-507" y="1574" type="curve" smooth="yes"/>
    </contour>
    <contour>
      <point x="-492" y="1517" type="line"/>
      <point x="-600" y="1517" type="line" smooth="yes"/>
      <point x="-737" y="1517"/>
      <point x="-808" y="1451"/>
      <point x="-808" y="1347" type="curve" smooth="yes"/>
      <point x="-808" y="1252"/>
      <point x="-752" y="1191"/>
      <point x="-660" y="1191" type="curve" smooth="yes"/>
      <point x="-563" y="1191"/>
      <point x="-501" y="1261"/>
      <point x="-477" y="1334" type="curve"/>
      <point x="-492" y="1390" type="line"/>
      <point x="-512" y="1313"/>
      <point x="-574" y="1262"/>
      <point x="-646" y="1262" type="curve" smooth="yes"/>
      <point x="-705" y="1262"/>
      <point x="-733" y="1295"/>
      <point x="-733" y="1349" type="curve" smooth="yes"/>
      <point x="-733" y="1415"/>
      <point x="-686" y="1455"/>
      <point x="-600" y="1455" type="curve" smooth="yes"/>
      <point x="-491" y="1455" type="line"/>
    </contour>
    <contour>
      <point x="-293" y="1190" type="curve" smooth="yes"/>
      <point x="-209" y="1190"/>
      <point x="-155" y="1235"/>
      <point x="-125" y="1288" type="curve"/>
      <point x="-166" y="1330" type="line"/>
      <point x="-200" y="1280"/>
      <point x="-236" y="1262"/>
      <point x="-291" y="1262" type="curve" smooth="yes"/>
      <point x="-373" y="1262"/>
      <point x="-432" y="1336"/>
      <point x="-432" y="1457" type="curve" smooth="yes"/>
      <point x="-432" y="1479" type="line" smooth="yes"/>
      <point x="-432" y="1606"/>
      <point x="-387" y="1688"/>
      <point x="-303" y="1688" type="curve" smooth="yes"/>
      <point x="-222" y="1688"/>
      <point x="-186" y="1620"/>
      <point x="-184" y="1528" type="curve" smooth="yes"/>
      <point x="-184" y="1521" type="line"/>
      <point x="-468" y="1521" type="line"/>
      <point x="-468" y="1460" type="line"/>
      <point x="-114" y="1460" type="line"/>
      <point x="-114" y="1506" type="line" smooth="yes"/>
      <point x="-114" y="1655"/>
      <point x="-182" y="1759"/>
      <point x="-303" y="1759" type="curve" smooth="yes"/>
      <point x="-415" y="1759"/>
      <point x="-507" y="1659"/>
      <point x="-507" y="1479" type="curve" smooth="yes"/>
      <point x="-507" y="1457" type="line" smooth="yes"/>
      <point x="-507" y="1300"/>
      <point x="-421" y="1190"/>
    </contour>
  </outline>
</glyph>
<glyph name="uni2055" format="2">
  <advance width="1005"/>
  <unicode hex="2055"/>
  <outline>
    <contour>
      <point x="856" y="487" type="line"/>
      <point x="856" y="580" type="line"/>
      <point x="149" y="581" type="line"/>
      <point x="149" y="487" type="line"/>
    </contour>
    <contour>
      <point x="722" y="199" type="line"/>
      <point x="780" y="266" type="line"/>
      <point x="282" y="865" type="line"/>
      <point x="224" y="799" type="line"/>
    </contour>
    <contour>
      <point x="544" y="956" type="line"/>
      <point x="462" y="956" type="line"/>
      <point x="461" y="112" type="line"/>
      <point x="544" y="112" type="line"/>
    </contour>
    <contour>
      <point x="282" y="199" type="line"/>
      <point x="780" y="799" type="line"/>
      <point x="722" y="865" type="line"/>
      <point x="224" y="266" type="line"/>
    </contour>
  </outline>
</glyph>
<glyph name="angstrom" format="2">
  <advance width="1124"/>
  <unicode hex="212B"/>
  <outline>
    <contour>
      <point x="584" y="1368" type="line"/>
      <point x="590" y="1456" type="line"/>
      <point x="509" y="1456" type="line"/>
      <point x="45" y="0" type="line"/>
      <point x="164" y="0" type="line"/>
    </contour>
    <contour>
      <point x="960" y="0" type="line"/>
      <point x="1079" y="0" type="line"/>
      <point x="615" y="1456" type="line"/>
      <point x="535" y="1456" type="line"/>
      <point x="540" y="1368" type="line"/>
    </contour>
    <contour>
      <point x="895" y="514" type="line"/>
      <point x="238" y="514" type="line"/>
      <point x="238" y="407" type="line"/>
      <point x="895" y="407" type="line"/>
    </contour>
    <contour>
      <point x="396" y="1571" type="curve"/>
      <point x="396" y="1464"/>
      <point x="468" y="1384"/>
      <point x="562" y="1384" type="curve" smooth="yes"/>
      <point x="654" y="1384"/>
      <point x="727" y="1464"/>
      <point x="727" y="1571" type="curve" smooth="yes"/>
      <point x="727" y="1678"/>
      <point x="654" y="1762"/>
      <point x="562" y="1762" type="curve" smooth="yes"/>
      <point x="468" y="1762"/>
      <point x="396" y="1678"/>
    </contour>
    <contour>
      <point x="464" y="1571" type="curve"/>
      <point x="464" y="1638"/>
      <point x="504" y="1690"/>
      <point x="562" y="1690" type="curve" smooth="yes"/>
      <point x="619" y="1690"/>
      <point x="659" y="1638"/>
      <point x="659" y="1571" type="curve" smooth="yes"/>
      <point x="659" y="1506"/>
      <point x="619" y="1456"/>
      <point x="562" y="1456" type="curve" smooth="yes"/>
      <point x="504" y="1456"/>
      <point x="464" y="1507"/>
    </contour>
  </outline>
</glyph>
<glyph name="uni2C75" format="2">
  <advance width="986"/>
  <unicode hex="2C75"/>
  <outline>
    <contour>
      <point x="931" y="804" type="line"/>
      <point x="263" y="804" type="line"/>
      <point x="263" y="697" type="line"/>
      <point x="931" y="697" type="line"/>
    </contour>
    <contour>
      <point x="287" y="1456" type="line"/>
      <point x="173" y="1456" type="line"/>
      <point x="173" y="0" type="line"/>
      <point x="287" y="0" type="line"/>
    </contour>
  </outline>
</glyph>
<glyph name="uni2DFF" format="2">
  <unicode hex="2DFF"/>
  <anchor x="-485" y="1170" name="_top"/>
  <outline>
    <contour>
      <point x="-772" y="1507" type="line"/>
      <point x="-772" y="1439" type="line"/>
      <point x="-426" y="1439" type="line"/>
      <point x="-426" y="1507" type="line"/>
    </contour>
    <contour>
      <point x="-827" y="1754" type="line"/>
      <point x="-827" y="1202" type="line"/>
      <point x="-752" y="1202" type="line"/>
      <point x="-752" y="1754" type="line"/>
    </contour>
    <contour>
      <point x="-258" y="1754" type="line"/>
      <point x="-414" y="1492" type="line"/>
      <point x="-413" y="1434" type="line"/>
      <point x="-377" y="1435" type="line"/>
      <point x="-171" y="1754" type="line"/>
    </contour>
    <contour>
      <point x="-631" y="1754" type="line"/>
      <point x="-425" y="1435" type="line"/>
      <point x="-388" y="1435" type="line"/>
      <point x="-388" y="1490" type="line"/>
      <point x="-544" y="1754" type="line"/>
    </contour>
    <contour>
      <point x="-437" y="1202" type="line"/>
      <point x="-366" y="1202" type="line"/>
      <point x="-366" y="1500" type="line"/>
      <point x="-437" y="1500" type="line"/>
    </contour>
    <contour>
      <point x="-569" y="1754" type="line"/>
      <point x="-551" y="1685" type="line"/>
      <point x="-255" y="1685" type="line"/>
      <point x="-237" y="1754" type="line"/>
    </contour>
    <contour>
      <point x="-589" y="1202" type="line"/>
      <point x="-589" y="1296" type="line" smooth="yes"/>
      <point x="-589" y="1410"/>
      <point x="-549" y="1439"/>
      <point x="-462" y="1439" type="curve" smooth="yes"/>
      <point x="-340" y="1439" type="line" smooth="yes"/>
      <point x="-253" y="1439"/>
      <point x="-214" y="1410"/>
      <point x="-214" y="1296" type="curve" smooth="yes"/>
      <point x="-214" y="1202" type="line"/>
      <point x="-143" y="1202" type="line"/>
      <point x="-143" y="1296" type="line" smooth="yes"/>
      <point x="-143" y="1450"/>
      <point x="-216" y="1507"/>
      <point x="-340" y="1507" type="curve" smooth="yes"/>
      <point x="-462" y="1507" type="line" smooth="yes"/>
      <point x="-586" y="1507"/>
      <point x="-659" y="1450"/>
      <point x="-659" y="1296" type="curve" smooth="yes"/>
      <point x="-659" y="1202" type="line"/>
    </contour>
  </outline>
</glyph>
<glyph name="uni2E00" format="2">
  <advance width="694"/>
  <unicode hex="2E00"/>
  <outline>
    <contour>
      <point x="607" y="1451" type="line"/>
      <point x="161" y="1451" type="line"/>
      <point x="161" y="1351" type="line"/>
      <point x="607" y="1351" type="line"/>
    </contour>
    <contour>
      <point x="190" y="1451" type="line"/>
      <point x="87" y="1451" type="line"/>
      <point x="87" y="651" type="line"/>
      <point x="190" y="651" type="line"/>
    </contour>
  </outline>
</glyph>
<glyph name="uniA670" format="2">
  <unicode hex="A670"/>
  <outline>
    <contour>
      <point x="-1052" y="91" type="line"/>
      <point x="-1132" y="91" type="line"/>
      <point x="-1031" y="-86" type="line"/>
      <point x="-1134" y="-266" type="line"/>
      <point x="-1054" y="-266" type="line"/>
      <point x="-988" y="-141" type="line"/>
      <point x="-922" y="-266" type="line"/>
      <point x="-843" y="-266" type="line"/>
      <point x="-945" y="-86" type="line"/>
      <point x="-846" y="91" type="line"/>
      <point x="-926" y="91" type="line"/>
      <point x="-989" y="-30" type="line"/>
    </contour>
    <contour>
      <point x="-1047" y="1369" type="line"/>
      <point x="-1127" y="1369" type="line"/>
      <point x="-1027" y="1192" type="line"/>
      <point x="-1130" y="1012" type="line"/>
      <point x="-1049" y="1012" type="line"/>
      <point x="-983" y="1137" type="line"/>
      <point x="-918" y="1012" type="line"/>
      <point x="-839" y="1012" type="line"/>
      <point x="-940" y="1192" type="line"/>
      <point x="-841" y="1369" type="line"/>
      <point x="-922" y="1369" type="line"/>
      <point x="-985" y="1248" type="line"/>
    </contour>
    <contour>
      <point x="-1257" y="730" type="line"/>
      <point x="-1337" y="730" type="line"/>
      <point x="-1237" y="553" type="line"/>
      <point x="-1339" y="373" type="line"/>
      <point x="-1259" y="373" type="line"/>
      <point x="-1193" y="498" type="line"/>
      <point x="-1127" y="373" type="line"/>
      <point x="-1048" y="373" type="line"/>
      <point x="-1150" y="553" type="line"/>
      <point x="-1051" y="730" type="line"/>
      <point x="-1131" y="730" type="line"/>
      <point x="-1195" y="609" type="line"/>
    </contour>
    <contour>
      <point x="-526" y="-151" type="line"/>
      <point x="-606" y="-151" type="line"/>
      <point x="-505" y="-328" type="line"/>
      <point x="-608" y="-508" type="line"/>
      <point x="-527" y="-508" type="line"/>
      <point x="-462" y="-383" type="line"/>
      <point x="-396" y="-508" type="line"/>
      <point x="-317" y="-508" type="line"/>
      <point x="-419" y="-328" type="line"/>
      <point x="-320" y="-151" type="line"/>
      <point x="-400" y="-151" type="line"/>
      <point x="-463" y="-272" type="line"/>
    </contour>
    <contour>
      <point x="-526" y="1589" type="line"/>
      <point x="-606" y="1589" type="line"/>
      <point x="-505" y="1412" type="line"/>
      <point x="-608" y="1232" type="line"/>
      <point x="-527" y="1232" type="line"/>
      <point x="-462" y="1357" type="line"/>
      <point x="-396" y="1232" type="line"/>
      <point x="-317" y="1232" type="line"/>
      <point x="-419" y="1412" type="line"/>
      <point x="-320" y="1589" type="line"/>
      <point x="-400" y="1589" type="line"/>
      <point x="-463" y="1468" type="line"/>
    </contour>
    <contour>
      <point x="-2" y="91" type="line"/>
      <point x="-82" y="91" type="line"/>
      <point x="17" y="-86" type="line"/>
      <point x="-85" y="-266" type="line"/>
      <point x="-5" y="-266" type="line"/>
      <point x="61" y="-141" type="line"/>
      <point x="127" y="-266" type="line"/>
      <point x="206" y="-266" type="line"/>
      <point x="104" y="-86" type="line"/>
      <point x="204" y="91" type="line"/>
      <point x="124" y="91" type="line"/>
      <point x="61" y="-30" type="line"/>
    </contour>
    <contour>
      <point x="-6" y="1369" type="line"/>
      <point x="-87" y="1369" type="line"/>
      <point x="13" y="1192" type="line"/>
      <point x="-89" y="1012" type="line"/>
      <point x="-9" y="1012" type="line"/>
      <point x="56" y="1137" type="line"/>
      <point x="122" y="1012" type="line"/>
      <point x="202" y="1012" type="line"/>
      <point x="99" y="1192" type="line"/>
      <point x="199" y="1369" type="line"/>
      <point x="119" y="1369" type="line"/>
      <point x="56" y="1248" type="line"/>
    </contour>
    <contour>
      <point x="204" y="730" type="line"/>
      <point x="123" y="730" type="line"/>
      <point x="223" y="553" type="line"/>
      <point x="121" y="373" type="line"/>
      <point x="201" y="373" type="line"/>
      <point x="266" y="498" type="line"/>
      <point x="332" y="373" type="line"/>
      <point x="412" y="373" type="line"/>
      <point x="309" y="553" type="line"/>
      <point x="409" y="730" type="line"/>
      <point x="329" y="730" type="line"/>
      <point x="266" y="609" type="line"/>
    </contour>
  </outline>
</glyph>
<glyph name="uniA688" format="2">
  <advance width="1454"/>
  <unicode hex="A688"/>
  <outline>
    <contour>
      <point x="1240" y="-177" type="line"/>
      <point x="1338" y="-177"/>
      <point x="1397" y="-117"/>
      <point x="1397" y="-44" type="curve" smooth="yes"/>
      <point x="1397" y="57"/>
      <point x="1337" y="107"/>
      <point x="1232" y="107" type="curve" smooth="yes"/>
      <point x="1075" y="107" type="line"/>
      <point x="1082" y="0" type="line"/>
      <point x="1147" y="0"/>
      <point x="1172" y="24"/>
      <point x="1237" y="24" type="curve" smooth="yes"/>
      <point x="1296" y="24"/>
      <point x="1322" y="0"/>
      <point x="1322" y="-46" type="curve" smooth="yes"/>
      <point x="1322" y="-86"/>
      <point x="1304" y="-121"/>
      <point x="1235" y="-121" type="curve" smooth="yes"/>
      <point x="1162" y="-121" type="line"/>
      <point x="1162" y="-177" type="line"/>
    </contour>
    <contour>
      <point x="1162" y="-142" type="line"/>
      <point x="1162" y="-197" type="line"/>
      <point x="1235" y="-197" type="line" smooth="yes"/>
      <point x="1305" y="-197"/>
      <point x="1329" y="-229"/>
      <point x="1329" y="-280" type="curve" smooth="yes"/>
      <point x="1329" y="-327"/>
      <point x="1306" y="-363"/>
      <point x="1232" y="-363" type="curve" smooth="yes"/>
      <point x="1168" y="-363"/>
      <point x="1134" y="-336"/>
      <point x="1128" y="-278" type="curve"/>
      <point x="1057" y="-278" type="line"/>
      <point x="1057" y="-388"/>
      <point x="1150" y="-437"/>
      <point x="1232" y="-437" type="curve" smooth="yes"/>
      <point x="1336" y="-437"/>
      <point x="1405" y="-380"/>
      <point x="1405" y="-285" type="curve" smooth="yes"/>
      <point x="1405" y="-198"/>
      <point x="1348" y="-142"/>
      <point x="1240" y="-142" type="curve" smooth="yes"/>
    </contour>
    <contour>
      <point x="1086" y="107" type="line"/>
      <point x="168" y="107" type="line"/>
      <point x="168" y="0" type="line"/>
      <point x="1086" y="0" type="line"/>
    </contour>
    <contour>
      <point x="191" y="107" type="line"/>
      <point x="77" y="107" type="line"/>
      <point x="77" y="-354" type="line"/>
      <point x="191" y="-354" type="line"/>
    </contour>
    <contour>
      <point x="991" y="1456" type="line"/>
      <point x="439" y="1456" type="line"/>
      <point x="439" y="1349" type="line"/>
      <point x="991" y="1349" type="line"/>
    </contour>
    <contour>
      <point x="1085" y="1456" type="line"/>
      <point x="970" y="1456" type="line"/>
      <point x="970" y="0" type="line"/>
      <point x="1085" y="0" type="line"/>
    </contour>
    <contour>
      <point x="398" y="1456" type="line"/>
      <point x="374" y="929" type="line" smooth="yes"/>
      <point x="349" y="397"/>
      <point x="217" y="173"/>
      <point x="162" y="107" type="curve"/>
      <point x="105" y="107" type="line"/>
      <point x="105" y="0" type="line"/>
      <point x="174" y="0" type="line"/>
      <point x="301" y="45"/>
      <point x="464" y="368"/>
      <point x="490" y="929" type="curve" smooth="yes"/>
      <point x="512" y="1456" type="line"/>
    </contour>
  </outline>
</glyph>
<glyph name="uniA705" format="2">
  <advance width="537"/>
  <unicode hex="A705"/>
  <outline>
    <contour>
      <point x="411" y="867" type="line"/>
      <point x="87" y="867" type="line"/>
      <point x="87" y="795" type="line"/>
      <point x="411" y="795" type="line"/>
    </contour>
    <contour>
      <point x="95" y="922" type="line"/>
      <point x="243" y="922" type="line" smooth="yes"/>
      <point x="380" y="922"/>
      <point x="450" y="1043"/>
      <point x="450" y="1198" type="curve" smooth="yes"/>
      <point x="450" y="1219" type="line" smooth="yes"/>
      <point x="450" y="1374"/>
      <point x="379" y="1495"/>
      <point x="244" y="1495" type="curve" smooth="yes"/>
      <point x="95" y="1495" type="line"/>
      <point x="95" y="1423" type="line"/>
      <point x="244" y="1423" type="line" smooth="yes"/>
      <point x="330" y="1423"/>
      <point x="375" y="1335"/>
      <point x="375" y="1219" type="curve" smooth="yes"/>
      <point x="375" y="1198" type="line" smooth="yes"/>
      <point x="375" y="1081"/>
      <point x="328" y="993"/>
      <point x="243" y="993" type="curve" smooth="yes"/>
      <point x="95" y="993" type="line"/>
    </contour>
  </outline>
</glyph>
<glyph name="uniA745" format="2">
  <advance width="991"/>
  <unicode hex="A745"/>
  <outline>
    <contour>
      <point x="838" y="610" type="line"/>
      <point x="463" y="188" type="line"/>
      <point x="528" y="113" type="line"/>
      <point x="903" y="535" type="line"/>
    </contour>
    <contour>
      <point x="354" y="1536" type="line"/>
      <point x="243" y="1536" type="line"/>
      <point x="243" y="0" type="line"/>
      <point x="354" y="0" type="line"/>
    </contour>
    <contour>
      <point x="921" y="1082" type="line"/>
      <point x="782" y="1082" type="line"/>
      <point x="446" y="678" type="line"/>
      <point x="298" y="490" type="line"/>
      <point x="313" y="370" type="line"/>
      <point x="502" y="580" type="line"/>
    </contour>
    <contour>
      <point x="823" y="0" type="line"/>
      <point x="956" y="0" type="line"/>
      <point x="514" y="666" type="line"/>
      <point x="454" y="561" type="line"/>
    </contour>
    <contour>
      <point x="562" y="1273" type="line"/>
      <point x="45" y="1273" type="line"/>
      <point x="45" y="1169" type="line"/>
      <point x="562" y="1169" type="line"/>
    </contour>
  </outline>
</glyph>
<glyph name="uniA759" format="2">
  <advance width="1231"/>
  <unicode hex="A759"/>
  <outline>
    <contour>
      <point x="982" y="809" type="line"/>
      <point x="1071" y="664"/>
      <point x="1163" y="517"/>
      <point x="978" y="296" type="curve" smooth="yes"/>
      <point x="512" y="-262" type="line"/>
      <point x="579" y="-336" type="line"/>
      <point x="1033" y="207" type="line" smooth="yes"/>
      <point x="1231" y="440"/>
      <point x="1232" y="619"/>
      <point x="1065" y="876" type="curve"/>
    </contour>
    <contour>
      <point x="736" y="-416" type="line"/>
      <point x="847" y="-416" type="line"/>
      <point x="847" y="1082" type="line"/>
      <point x="744" y="1082" type="line"/>
      <point x="736" y="874" type="line"/>
    </contour>
    <contour>
      <point x="109" y="530" type="line"/>
      <point x="109" y="207"/>
      <point x="241" y="-20"/>
      <point x="462" y="-20" type="curve" smooth="yes"/>
      <point x="682" y="-20"/>
      <point x="801" y="156"/>
      <point x="827" y="401" type="curve"/>
      <point x="827" y="664" type="line"/>
      <point x="796" y="926"/>
      <point x="680" y="1102"/>
      <point x="463" y="1102" type="curve" smooth="yes"/>
      <point x="240" y="1102"/>
      <point x="109" y="886"/>
      <point x="109" y="551" type="curve" smooth="yes"/>
    </contour>
    <contour>
      <point x="221" y="551" type="line"/>
      <point x="221" y="801"/>
      <point x="304" y="998"/>
      <point x="486" y="998" type="curve" smooth="yes"/>
      <point x="671" y="998"/>
      <point x="747" y="819"/>
      <point x="771" y="684" type="curve"/>
      <point x="771" y="375" type="line"/>
      <point x="738" y="218"/>
      <point x="653" y="84"/>
      <point x="484" y="84" type="curve" smooth="yes"/>
      <point x="304" y="84"/>
      <point x="221" y="279"/>
      <point x="221" y="530" type="curve" smooth="yes"/>
    </contour>
  </outline>
</glyph>
<glyph name="uniA75E" format="2">
  <advance width="1108"/>
  <unicode hex="A75E"/>
  <outline>
    <contour>
      <point x="875" y="1557" type="line"/>
      <point x="776" y="1557" type="line"/>
      <point x="272" y="-125" type="line"/>
      <point x="372" y="-125" type="line"/>
    </contour>
    <contour>
      <point x="558" y="182" type="line"/>
      <point x="516" y="0" type="line"/>
      <point x="608" y="0" type="line"/>
      <point x="1063" y="1456" type="line"/>
      <point x="938" y="1456" type="line"/>
    </contour>
    <contour>
      <point x="171" y="1456" type="line"/>
      <point x="46" y="1456" type="line"/>
      <point x="501" y="0" type="line"/>
      <point x="592" y="0" type="line"/>
      <point x="550" y="182" type="line"/>
    </contour>
  </outline>
</glyph>
<glyph name="G.ss06" format="2">
  <advance width="1253"/>
  <outline>
    <contour>
      <point x="1100" y="692" type="line"/>
      <point x="666" y="692" type="line"/>
      <point x="666" y="586" type="line"/>
      <point x="986" y="586" type="line"/>
      <point x="986" y="212" type="line"/>
      <point x="953" y="161"/>
      <point x="848" y="86"/>
      <point x="673" y="86" type="curve" smooth="yes"/>
      <point x="420" y="86"/>
      <point x="242" y="348"/>
      <point x="242" y="717" type="curve" smooth="yes"/>
      <point x="242" y="752" type="line" smooth="yes"/>
      <point x="242" y="1108"/>
      <point x="401" y="1369"/>
      <point x="636" y="1369" type="curve" smooth="yes"/>
      <point x="867" y="1369"/>
      <point x="958" y="1219"/>
      <point x="984" y="1046" type="curve"/>
      <point x="1099" y="1046" type="line"/>
      <point x="1070" y="1291"/>
      <point x="925" y="1476"/>
      <point x="636" y="1476" type="curve" smooth="yes"/>
      <point x="340" y="1476"/>
      <point x="127" y="1181"/>
      <point x="127" y="750" type="curve" smooth="yes"/>
      <point x="127" y="717" type="line" smooth="yes"/>
      <point x="127" y="280"/>
      <point x="359" y="-21"/>
      <point x="673" y="-21" type="curve" smooth="yes"/>
      <point x="923" y="-21"/>
      <point x="1058" y="101"/>
      <point x="1100" y="174" type="curve"/>
    </contour>
  </outline>
</glyph>
<glyph name="largerighthook" format="2">
  <advance width="687"/>
  <outline>
    <contour>
      <point x="-61" y="727" type="line"/>
      <point x="131" y="727" type="line" smooth="yes"/>
      <point x="364" y="727"/>
      <point x="508" y="581"/>
      <point x="508" y="265" type="curve" smooth="yes"/>
      <point x="509" y="28"/>
      <point x="427" y="-177"/>
      <point x="232" y="-177" type="curve"/>
      <point x="233" y="-277" type="line"/>
      <point x="496" y="-277"/>
      <point x="620" y="-19"/>
      <point x="620" y="265" type="curve" smooth="yes"/>
      <point x="620" y="654"/>
      <point x="426" y="836"/>
      <point x="131" y="836" type="curve" smooth="yes"/>
      <point x="-61" y="836" type="line"/>
    </contour>
  </outline>
</glyph>
<glyph name="macroncomb_uni1ABB" format="2">
  <anchor x="-456" y="1290" name="_top"/>
  <anchor x="-456" y="1540" name="top"/>
  <anchor x="-456" y="1540" name="parent_top"/>
  <outline>
    <contour>
      <point x="-775" y="1181" type="curve"/>
      <point x="-769" y="1232" type="line"/>
      <point x="-818" y="1257"/>
      <point x="-865" y="1311"/>
      <point x="-865" y="1398" type="curve" smooth="yes"/>
      <point x="-865" y="1478"/>
      <point x="-821" y="1535"/>
      <point x="-769" y="1559" type="curve"/>
      <point x="-775" y="1610" type="line"/>
      <point x="-845" y="1584"/>
      <point x="-926" y="1505"/>
      <point x="-926" y="1398" type="curve" smooth="yes"/>
      <point x="-926" y="1284"/>
      <point x="-845" y="1208"/>
    </contour>
    <contour>
      <point x="-157" y="1181" type="line"/>
      <point x="-87" y="1208"/>
      <point x="-7" y="1284"/>
      <point x="-7" y="1398" type="curve" smooth="yes"/>
      <point x="-7" y="1506"/>
      <point x="-87" y="1584"/>
      <point x="-157" y="1610" type="curve"/>
      <point x="-163" y="1559" type="line"/>
      <point x="-112" y="1535"/>
      <point x="-68" y="1480"/>
      <point x="-68" y="1398" type="curve" smooth="yes"/>
      <point x="-68" y="1311"/>
      <point x="-114" y="1257"/>
      <point x="-163" y="1232" type="curve"/>
    </contour>
    <contour>
      <point x="-200" y="1456" type="line"/>
      <point x="-728" y="1456" type="line"/>
      <point x="-728" y="1357" type="line"/>
      <point x="-200" y="1357" type="line"/>
    </contour>
  </outline>
</glyph>
<glyph name="rrthook_uni1ABE" format="2">
  <advance width="801"/>
  <outline>
    <contour>
      <point x="255" y="200" type="line"/>
      <point x="255" y="-113" type="line" smooth="yes"/>
      <point x="255" y="-322"/>
      <point x="344" y="-437"/>
      <point x="488" y="-437" type="curve" smooth="yes"/>
      <point x="518" y="-437"/>
      <point x="549" y="-431"/>
      <point x="576" y="-421" type="curve"/>
      <point x="571" y="-330" type="line"/>
      <point x="556" y="-336"/>
      <point x="529" y="-343"/>
      <point x="508" y="-343" type="curve" smooth="yes"/>
      <point x="408" y="-343"/>
      <point x="366" y="-266"/>
      <point x="366" y="-113" type="curve" smooth="yes"/>
      <point x="366" y="200" type="line"/>
    </contour>
    <contour>
      <point x="366" y="903" type="line"/>
      <point x="363" y="1082" type="line"/>
      <point x="255" y="1082" type="line"/>
      <point x="255" y="0" type="line"/>
      <point x="366" y="0" type="line"/>
    </contour>
    <contour>
      <point x="680" y="1090" type="line"/>
      <point x="668" y="1096"/>
      <point x="638" y="1102"/>
      <point x="613" y="1102" type="curve"/>
      <point x="405" y="1102"/>
      <point x="309" y="882"/>
      <point x="309" y="601" type="curve"/>
      <point x="348" y="618" type="line"/>
      <point x="356" y="823"/>
      <point x="440" y="985"/>
      <point x="609" y="985" type="curve"/>
      <point x="635" y="985"/>
      <point x="655" y="983"/>
      <point x="678" y="978" type="curve"/>
    </contour>
    <contour>
      <point x="175" y="-522" type="curve"/>
      <point x="181" y="-471" type="line"/>
      <point x="132" y="-446"/>
      <point x="85" y="-392"/>
      <point x="85" y="-306" type="curve" smooth="yes"/>
      <point x="85" y="-225"/>
      <point x="129" y="-169"/>
      <point x="181" y="-144" type="curve"/>
      <point x="175" y="-93" type="line"/>
      <point x="105" y="-119"/>
      <point x="24" y="-198"/>
      <point x="24" y="-306" type="curve" smooth="yes"/>
      <point x="24" y="-419"/>
      <point x="105" y="-496"/>
    </contour>
    <contour>
      <point x="627" y="-522" type="line"/>
      <point x="697" y="-496"/>
      <point x="777" y="-419"/>
      <point x="777" y="-306" type="curve" smooth="yes"/>
      <point x="777" y="-197"/>
      <point x="697" y="-119"/>
      <point x="627" y="-93" type="curve"/>
      <point x="620" y="-144" type="line"/>
      <point x="672" y="-169"/>
      <point x="716" y="-224"/>
      <point x="716" y="-306" type="curve" smooth="yes"/>
      <point x="716" y="-393"/>
      <point x="670" y="-446"/>
      <point x="620" y="-471" type="curve"/>
    </contour>
  </outline>
</glyph>
<glyph name="uni0402.smcp" format="2">
  <advance width="1190"/>
  <outline>
    <contour>
      <point x="802" y="1165" type="line"/>
      <point x="50" y="1165" type="line"/>
      <point x="50" y="1061" type="line"/>
      <point x="802" y="1061" type="line"/>
    </contour>
    <contour>
      <point x="364" y="0" type="line"/>
      <point x="475" y="0" type="line"/>
      <point x="475" y="1165" type="line"/>
      <point x="364" y="1165" type="line"/>
    </contour>
    <contour>
      <point x="440" y="538" type="line"/>
      <point x="513" y="580"/>
      <point x="628" y="624"/>
      <point x="746" y="624" type="curve" smooth="yes"/>
      <point x="915" y="624"/>
      <point x="999" y="538"/>
      <point x="999" y="344" type="curve" smooth="yes"/>
      <point x="999" y="131"/>
      <point x="887" y="84"/>
      <point x="762" y="84" type="curve"/>
      <point x="762" y="-20" type="line"/>
      <point x="956" y="-20"/>
      <point x="1110" y="77"/>
      <point x="1110" y="343" type="curve" smooth="yes"/>
      <point x="1110" y="605"/>
      <point x="978" y="728"/>
      <point x="746" y="728" type="curve" smooth="yes"/>
      <point x="621" y="728"/>
      <point x="521" y="689"/>
      <point x="440" y="645" type="curve"/>
    </contour>
  </outline>
</glyph>
<glyph name="uni04A8.smcp" format="2">
  <advance width="1272"/>
  <anchor x="607" y="1320" name="top"/>
  <anchor x="607" y="-10" name="bottom"/>
  <anchor x="1252" y="1320" name="top0315"/>
  <anchor x="607" y="1320" name="parent_top"/>
  <outline>
    <contour>
      <point x="1157" y="87" type="line"/>
      <point x="787" y="87"/>
      <point x="611" y="295"/>
      <point x="611" y="635" type="curve" smooth="yes"/>
      <point x="611" y="688" type="line" smooth="yes"/>
      <point x="611" y="927"/>
      <point x="677" y="1074"/>
      <point x="817" y="1074" type="curve" smooth="yes"/>
      <point x="960" y="1074"/>
      <point x="1026" y="934"/>
      <point x="1026" y="688" type="curve" smooth="yes"/>
      <point x="1026" y="625" type="line" smooth="yes"/>
      <point x="1026" y="319"/>
      <point x="881" y="86"/>
      <point x="598" y="86" type="curve" smooth="yes"/>
      <point x="349" y="86"/>
      <point x="218" y="286"/>
      <point x="218" y="621" type="curve" smooth="yes"/>
      <point x="218" y="649" type="line" smooth="yes"/>
      <point x="218" y="914"/>
      <point x="322" y="1082"/>
      <point x="490" y="1082" type="curve"/>
      <point x="489" y="1189" type="line"/>
      <point x="260" y="1189"/>
      <point x="107" y="984"/>
      <point x="107" y="647" type="curve" smooth="yes"/>
      <point x="107" y="621" type="line" smooth="yes"/>
      <point x="107" y="228"/>
      <point x="279" y="-21"/>
      <point x="598" y="-21" type="curve" smooth="yes"/>
      <point x="929" y="-21"/>
      <point x="1137" y="245"/>
      <point x="1137" y="625" type="curve" smooth="yes"/>
      <point x="1137" y="687" type="line" smooth="yes"/>
      <point x="1137" y="1000"/>
      <point x="1019" y="1181"/>
      <point x="817" y="1181" type="curve" smooth="yes"/>
      <point x="615" y="1181"/>
      <point x="500" y="995"/>
      <point x="500" y="687" type="curve" smooth="yes"/>
      <point x="500" y="637" type="line" smooth="yes"/>
      <point x="500" y="222"/>
      <point x="746" y="-20"/>
      <point x="1157" y="-20" type="curve"/>
    </contour>
  </outline>
</glyph>
